<svg width="70" height="70" viewBox="0 0 70 70" fill="none" xmlns="http://www.w3.org/2000/svg">
<path d="M8.75 28.0729H61.25M49.5833 7.65625V19.3229M20.4167 7.65625V19.3229M49.5833 13.4896H20.4167C17.3225 13.4896 14.355 14.7187 12.1671 16.9067C9.97916 19.0946 8.75 22.0621 8.75 25.1563V50.6771C8.75 53.7713 9.97916 56.7387 12.1671 58.9267C14.355 61.1146 17.3225 62.3438 20.4167 62.3438H49.5833C52.6775 62.3438 55.645 61.1146 57.8329 58.9267C60.0208 56.7387 61.25 53.7713 61.25 50.6771V25.1563C61.25 22.0621 60.0208 19.0946 57.8329 16.9067C55.645 14.7187 52.6775 13.4896 49.5833 13.4896Z" stroke="#8AA353" stroke-width="4.375" stroke-linecap="round" stroke-linejoin="round"/>
<path d="M30.6133 37.7181C31.0458 36.7754 31.7801 36.0038 32.7003 35.5252C33.6205 35.0466 34.674 34.8884 35.6941 35.0756C36.3931 35.1826 37.0573 35.4521 37.6333 35.8624C38.2092 36.2727 38.6809 36.8124 39.0104 37.4381C39.2484 37.9386 39.3778 38.4838 39.3898 39.0379C39.4019 39.5919 39.2965 40.1423 39.0804 40.6526C38.8644 41.163 38.5426 41.6218 38.1364 41.9988C37.7302 42.3757 37.2487 42.6624 36.7237 42.8398C36.189 43.0428 35.7264 43.3997 35.3942 43.8653C35.062 44.3309 34.8751 44.8844 34.857 45.4561V46.5352" stroke="#8AA353" stroke-width="4.375" stroke-miterlimit="10" stroke-linecap="round"/>
<path d="M34.7734 52.5H34.7851" stroke="#8AA353" stroke-width="4.375" stroke-linecap="round" stroke-linejoin="round"/>
</svg>
