<svg width="29" height="29" viewBox="0 0 29 29" fill="none" xmlns="http://www.w3.org/2000/svg">
<path d="M19.9375 6.04167V3.625M9.0625 6.04167V3.625M3.92708 9.66667H25.0729M3.625 12.1365C3.625 9.58087 3.625 8.30246 4.15183 7.32613C4.62795 6.45508 5.36722 5.75683 6.264 5.33117C7.29833 4.83333 8.65167 4.83333 11.3583 4.83333H17.6417C20.3483 4.83333 21.7017 4.83333 22.736 5.33117C23.6459 5.76858 24.3842 6.467 24.8482 7.32492C25.375 8.30367 25.375 9.58208 25.375 12.1377V18.073C25.375 20.6287 25.375 21.9071 24.8482 22.8834C24.3721 23.7545 23.6328 24.4527 22.736 24.8784C21.7017 25.375 20.3483 25.375 17.6417 25.375H11.3583C8.65167 25.375 7.29833 25.375 6.264 24.8772C5.3674 24.4518 4.62815 23.754 4.15183 22.8834C3.625 21.9047 3.625 20.6263 3.625 18.0706V12.1365Z" stroke="#8AA353" stroke-width="1.8125" stroke-linecap="round" stroke-linejoin="round"/>
</svg>
