<svg width="45" height="45" viewBox="0 0 45 45" fill="none" xmlns="http://www.w3.org/2000/svg">
<path fill-rule="evenodd" clip-rule="evenodd" d="M13.6181 6.1125C13.7292 5.07752 14.2189 4.12013 14.9932 3.42443C15.7674 2.72872 16.7716 2.34383 17.8125 2.34375H27.1875C28.2284 2.34383 29.2326 2.72872 30.0068 3.42443C30.7811 4.12013 31.2708 5.07752 31.3819 6.1125C32.8144 6.1425 34.05 6.21562 35.1075 6.41062C36.5288 6.67312 37.7381 7.16813 38.7225 8.15438C39.8512 9.28125 40.335 10.7044 40.5638 12.3919C40.7812 14.0156 40.7812 16.0837 40.7812 18.6469V30.1031C40.7812 32.6663 40.7812 34.7344 40.5638 36.36C40.335 38.0475 39.8512 39.4688 38.7225 40.5975C37.5938 41.7262 36.1725 42.21 34.485 42.4388C32.8594 42.6562 30.7913 42.6562 28.2281 42.6562H16.7719C14.2087 42.6562 12.1406 42.6562 10.515 42.4388C8.8275 42.21 7.40625 41.7262 6.2775 40.5975C5.14875 39.4688 4.665 38.0475 4.43813 36.36C4.21875 34.7344 4.21875 32.6663 4.21875 30.1031V18.6469C4.21875 16.0837 4.21875 14.0156 4.43813 12.39C4.66313 10.7025 5.15063 9.28125 6.2775 8.1525C7.26188 7.16813 8.47125 6.67125 9.8925 6.41062C10.95 6.21562 12.1875 6.1425 13.6181 6.1125ZM13.6219 8.925C12.2756 8.955 11.2369 9.0225 10.4006 9.17625C9.33938 9.37125 8.7225 9.68625 8.26687 10.1419C7.7475 10.6613 7.41 11.3888 7.22437 12.7669C7.035 14.1806 7.03125 16.0594 7.03125 18.75V30C7.03125 32.6906 7.035 34.5675 7.22437 35.985C7.41 37.3612 7.74937 38.0887 8.26687 38.6081C8.78625 39.1275 9.51375 39.465 10.8919 39.6506C12.3056 39.84 14.1844 39.8438 16.875 39.8438H28.125C30.8156 39.8438 32.6925 39.84 34.11 39.6506C35.4862 39.465 36.2137 39.1256 36.7331 38.6081C37.2525 38.0887 37.59 37.3613 37.7756 35.9831C37.965 34.5675 37.9688 32.6906 37.9688 30V18.75C37.9688 16.0594 37.965 14.1806 37.7756 12.765C37.59 11.3888 37.2506 10.6613 36.7331 10.1419C36.2756 9.68625 35.6606 9.37313 34.5994 9.17625C33.7631 9.0225 32.7244 8.955 31.3781 8.92688C31.2582 9.95409 30.765 10.9015 29.9925 11.589C29.2199 12.2765 28.2217 12.6563 27.1875 12.6562H17.8125C16.778 12.6563 15.7796 12.2762 15.007 11.5883C14.2343 10.9004 13.7414 9.95256 13.6219 8.925ZM17.8125 5.15625C17.4395 5.15625 17.0819 5.30441 16.8181 5.56813C16.5544 5.83185 16.4062 6.18954 16.4062 6.5625V8.4375C16.4062 9.21375 17.0363 9.84375 17.8125 9.84375H27.1875C27.5605 9.84375 27.9181 9.69559 28.1819 9.43187C28.4456 9.16815 28.5938 8.81046 28.5938 8.4375V6.5625C28.5938 6.18954 28.4456 5.83185 28.1819 5.56813C27.9181 5.30441 27.5605 5.15625 27.1875 5.15625H17.8125ZM11.7188 19.6875C11.7188 19.3145 11.8669 18.9569 12.1306 18.6931C12.3944 18.4294 12.752 18.2812 13.125 18.2812H31.875C32.248 18.2812 32.6056 18.4294 32.8694 18.6931C33.1331 18.9569 33.2812 19.3145 33.2812 19.6875C33.2812 20.0605 33.1331 20.4181 32.8694 20.6819C32.6056 20.9456 32.248 21.0938 31.875 21.0938H13.125C12.752 21.0938 12.3944 20.9456 12.1306 20.6819C11.8669 20.4181 11.7188 20.0605 11.7188 19.6875ZM13.5938 26.25C13.5938 25.877 13.7419 25.5194 14.0056 25.2556C14.2694 24.9919 14.627 24.8438 15 24.8438H30C30.373 24.8438 30.7306 24.9919 30.9944 25.2556C31.2581 25.5194 31.4062 25.877 31.4062 26.25C31.4062 26.623 31.2581 26.9806 30.9944 27.2444C30.7306 27.5081 30.373 27.6562 30 27.6562H15C14.627 27.6562 14.2694 27.5081 14.0056 27.2444C13.7419 26.9806 13.5938 26.623 13.5938 26.25ZM15.4688 32.8125C15.4688 32.4395 15.6169 32.0819 15.8806 31.8181C16.1444 31.5544 16.502 31.4062 16.875 31.4062H28.125C28.498 31.4062 28.8556 31.5544 29.1194 31.8181C29.3831 32.0819 29.5312 32.4395 29.5312 32.8125C29.5312 33.1855 29.3831 33.5431 29.1194 33.8069C28.8556 34.0706 28.498 34.2188 28.125 34.2188H16.875C16.502 34.2188 16.1444 34.0706 15.8806 33.8069C15.6169 33.5431 15.4688 33.1855 15.4688 32.8125Z" fill="#8AA353"/>
</svg>
