<svg width="104" height="104" viewBox="0 0 104 104" fill="none" xmlns="http://www.w3.org/2000/svg">
<mask id="mask0_295_918" style="mask-type:luminance" maskUnits="userSpaceOnUse" x="8" y="4" width="92" height="92">
<path d="M13 90.9999L31.7937 37.4053L67.1667 73.7489L13 90.9999Z" fill="#555555" stroke="white" stroke-width="8.66667" stroke-linejoin="round"/>
<path d="M49.834 41.166L60.6673 30.3327C66.4458 24.5542 67.1673 19.4993 62.834 15.166M62.834 54.166L73.6673 43.3327C80.8888 36.1112 88.1125 36.1112 95.334 43.3327" stroke="white" stroke-width="8.66667" stroke-linecap="round" stroke-linejoin="round"/>
<path d="M43.3333 15.1663C44.4826 15.1663 45.5848 14.7098 46.3975 13.8971C47.2101 13.0845 47.6667 11.9823 47.6667 10.833C47.6667 9.68374 47.2101 8.58154 46.3975 7.76888C45.5848 6.95622 44.4826 6.49967 43.3333 6.49967C42.1841 6.49967 41.0819 6.95622 40.2692 7.76888C39.4565 8.58154 39 9.68374 39 10.833C39 11.9823 39.4565 13.0845 40.2692 13.8971C41.0819 14.7098 42.1841 15.1663 43.3333 15.1663ZM91 12.9997C92.1493 12.9997 93.2515 12.5431 94.0641 11.7305C94.8768 10.9178 95.3333 9.81561 95.3333 8.66634C95.3333 7.51707 94.8768 6.41487 94.0641 5.60221C93.2515 4.78955 92.1493 4.33301 91 4.33301C89.8507 4.33301 88.7485 4.78955 87.9359 5.60221C87.1232 6.41487 86.6667 7.51707 86.6667 8.66634C86.6667 9.81561 87.1232 10.9178 87.9359 11.7305C88.7485 12.5431 89.8507 12.9997 91 12.9997ZM91 62.833C92.1493 62.833 93.2515 62.3765 94.0641 61.5638C94.8768 60.7511 95.3333 59.6489 95.3333 58.4997C95.3333 57.3504 94.8768 56.2482 94.0641 55.4355C93.2515 54.6229 92.1493 54.1663 91 54.1663C89.8507 54.1663 88.7485 54.6229 87.9359 55.4355C87.1232 56.2482 86.6667 57.3504 86.6667 58.4997C86.6667 59.6489 87.1232 60.7511 87.9359 61.5638C88.7485 62.3765 89.8507 62.833 91 62.833ZM84.5 82.333C85.6493 82.333 86.7515 81.8765 87.5641 81.0638C88.3768 80.2512 88.8333 79.1489 88.8333 77.9997C88.8333 76.8504 88.3768 75.7482 87.5641 74.9355C86.7515 74.1229 85.6493 73.6663 84.5 73.6663C83.3507 73.6663 82.2485 74.1229 81.4359 74.9355C80.6232 75.7482 80.1667 76.8504 80.1667 77.9997C80.1667 79.1489 80.6232 80.2512 81.4359 81.0638C82.2485 81.8765 83.3507 82.333 84.5 82.333Z" fill="white"/>
</mask>
<g mask="url(#mask0_295_918)">
<path d="M0 0H104V104H0V0Z" fill="#8AA353"/>
</g>
</svg>
