<svg width="28" height="28" viewBox="0 0 28 28" fill="none" xmlns="http://www.w3.org/2000/svg">
<g clip-path="url(#clip0_654_442)">
<path d="M14 26.25C10.7511 26.25 7.63526 24.9594 5.33794 22.6621C3.04062 20.3647 1.75 17.2489 1.75 14C1.75 10.7511 3.04062 7.63526 5.33794 5.33794C7.63526 3.04062 10.7511 1.75 14 1.75C17.2489 1.75 20.3647 3.04062 22.6621 5.33794C24.9594 7.63526 26.25 10.7511 26.25 14C26.25 17.2489 24.9594 20.3647 22.6621 22.6621C20.3647 24.9594 17.2489 26.25 14 26.25ZM14 28C17.713 28 21.274 26.525 23.8995 23.8995C26.525 21.274 28 17.713 28 14C28 10.287 26.525 6.72601 23.8995 4.10051C21.274 1.475 17.713 0 14 0C10.287 0 6.72601 1.475 4.10051 4.10051C1.475 6.72601 0 10.287 0 14C0 17.713 1.475 21.274 4.10051 23.8995C6.72601 26.525 10.287 28 14 28Z" fill="#D66F6F"/>
<path d="M8.13011 8.1306C8.21139 8.04911 8.30795 7.98446 8.41425 7.94035C8.52056 7.89624 8.63452 7.87354 8.74961 7.87354C8.8647 7.87354 8.97867 7.89624 9.08497 7.94035C9.19127 7.98446 9.28783 8.04911 9.36911 8.1306L13.9996 12.7628L18.6301 8.1306C18.7115 8.04924 18.808 7.98471 18.9143 7.94068C19.0206 7.89665 19.1346 7.87399 19.2496 7.87399C19.3647 7.87399 19.4786 7.89665 19.5849 7.94068C19.6912 7.98471 19.7878 8.04924 19.8691 8.1306C19.9505 8.21195 20.015 8.30853 20.059 8.41483C20.1031 8.52112 20.1257 8.63505 20.1257 8.7501C20.1257 8.86515 20.1031 8.97908 20.059 9.08537C20.015 9.19166 19.9505 9.28825 19.8691 9.3696L15.2369 14.0001L19.8691 18.6306C19.9505 18.712 20.015 18.8085 20.059 18.9148C20.1031 19.0211 20.1257 19.135 20.1257 19.2501C20.1257 19.3651 20.1031 19.4791 20.059 19.5854C20.015 19.6917 19.9505 19.7882 19.8691 19.8696C19.7878 19.951 19.6912 20.0155 19.5849 20.0595C19.4786 20.1035 19.3647 20.1262 19.2496 20.1262C19.1346 20.1262 19.0206 20.1035 18.9143 20.0595C18.808 20.0155 18.7115 19.951 18.6301 19.8696L13.9996 15.2373L9.36911 19.8696C9.28776 19.951 9.19118 20.0155 9.08488 20.0595C8.97859 20.1035 8.86466 20.1262 8.74961 20.1262C8.63456 20.1262 8.52063 20.1035 8.41434 20.0595C8.30805 20.0155 8.21146 19.951 8.13011 19.8696C8.04876 19.7882 7.98422 19.6917 7.94019 19.5854C7.89617 19.4791 7.8735 19.3651 7.8735 19.2501C7.8735 19.135 7.89617 19.0211 7.94019 18.9148C7.98422 18.8085 8.04876 18.712 8.13011 18.6306L12.7624 14.0001L8.13011 9.3696C8.04862 9.28832 7.98397 9.19176 7.93986 9.08546C7.89575 8.97915 7.87305 8.86519 7.87305 8.7501C7.87305 8.63501 7.89575 8.52104 7.93986 8.41474C7.98397 8.30844 8.04862 8.21188 8.13011 8.1306Z" fill="#D66F6F"/>
</g>
<defs>
<clipPath id="clip0_654_442">
<rect width="28" height="28" fill="white"/>
</clipPath>
</defs>
</svg>
