<svg width="65" height="65" viewBox="0 0 65 65" fill="none" xmlns="http://www.w3.org/2000/svg">
<path d="M50.2989 15.8921C48.8295 12.3837 46.356 9.38785 43.1893 7.28088C40.0225 5.17391 36.3037 4.0498 32.5001 4.0498C28.6964 4.0498 24.9776 5.17391 21.8108 7.28088C18.6441 9.38785 16.1706 12.3837 14.7012 15.8921C11.5279 17.3425 8.83818 19.6741 6.95211 22.6095C5.06603 25.5448 4.06306 28.9602 4.06256 32.4493C4.03717 42.1485 12.1876 50.5274 21.8715 50.7813C24.8502 50.8532 27.8013 50.1969 30.4688 48.8694V58.9063C30.4688 59.4451 30.6828 59.9617 31.0637 60.3426C31.4447 60.7236 31.9613 60.9376 32.5001 60.9376C33.0388 60.9376 33.5554 60.7236 33.9364 60.3426C34.3173 59.9617 34.5313 59.4451 34.5313 58.9063V48.8694C37.0566 50.123 39.837 50.7773 42.6563 50.7813H43.1184C52.8126 50.5274 60.9655 42.1485 60.9376 32.4493C60.9371 28.9602 59.9341 25.5448 58.048 22.6095C56.1619 19.6741 53.4722 17.3425 50.2989 15.8921ZM43.0245 46.7188C39.9954 46.7977 37.0201 45.9083 34.5313 44.1798V33.7696L45.5965 28.2395C45.8353 28.1202 46.0482 27.9549 46.2231 27.7533C46.3979 27.5517 46.5314 27.3175 46.6158 27.0643C46.7002 26.8111 46.7339 26.5437 46.715 26.2775C46.6961 26.0112 46.6249 25.7513 46.5055 25.5126C46.3862 25.2738 46.2209 25.061 46.0193 24.8861C45.8176 24.7112 45.5835 24.5777 45.3303 24.4933C45.0771 24.4089 44.8097 24.3752 44.5435 24.3941C44.2772 24.4131 44.0173 24.4842 43.7786 24.6036L34.5313 29.2145V22.3438C34.5313 21.8051 34.3173 21.2885 33.9364 20.9075C33.5554 20.5266 33.0388 20.3126 32.5001 20.3126C31.9613 20.3126 31.4447 20.5266 31.0637 20.9075C30.6828 21.2885 30.4688 21.8051 30.4688 22.3438V35.3083L21.2215 30.6821C20.7394 30.441 20.1812 30.4014 19.6698 30.5718C19.1584 30.7423 18.7357 31.1089 18.4946 31.5911C18.2535 32.0733 18.2138 32.6314 18.3843 33.1428C18.5548 33.6542 18.9214 34.077 19.4036 34.3181L30.4688 39.8481V44.1645C27.9807 45.8943 25.0049 46.7839 21.9756 46.7036C14.4473 46.5233 8.10475 39.9954 8.12506 32.4595C8.12313 29.6253 8.97171 26.8558 10.561 24.5092C12.1503 22.1626 14.4072 20.3469 17.0397 19.297C17.3038 19.1909 17.5426 19.0306 17.7408 18.8263C17.9389 18.622 18.0919 18.3784 18.1899 18.1112C19.2613 15.1771 21.2088 12.6432 23.7685 10.8528C26.3282 9.06253 29.3764 8.10232 32.5001 8.10232C35.6237 8.10232 38.6719 9.06253 41.2316 10.8528C43.7913 12.6432 45.7388 15.1771 46.8102 18.1112C46.9082 18.3784 47.0612 18.622 47.2593 18.8263C47.4575 19.0306 47.6963 19.1909 47.9604 19.297C50.5925 20.3475 52.849 22.1633 54.4382 24.5098C56.0274 26.8562 56.8763 29.6255 56.8751 32.4595C56.8954 39.9954 50.5528 46.5233 43.0245 46.7188Z" fill="#D9D9D9"/>
</svg>