<svg width="104" height="104" viewBox="0 0 104 104" fill="none" xmlns="http://www.w3.org/2000/svg">
<path d="M52 95.3329C46.5833 95.3329 41.5104 94.3045 36.7813 92.2476C32.0522 90.1907 27.9356 87.4102 24.4313 83.9059C20.9271 80.4017 18.1466 76.2851 16.0897 71.5559C14.0328 66.8268 13.0029 61.7525 13 56.3329C13 55.1052 13.416 54.0767 14.248 53.2476C15.08 52.4185 16.1084 52.0025 17.3333 51.9996C18.5582 51.9967 19.5881 52.4127 20.423 53.2476C21.2579 54.0825 21.6724 55.1109 21.6667 56.3329C21.6667 64.7829 24.6104 71.9517 30.498 77.8393C36.3856 83.7268 43.5529 86.6692 52 86.6663C60.4471 86.6634 67.6159 83.7211 73.5063 77.8393C79.3968 71.9575 82.3391 64.7887 82.3333 56.3329C82.3276 47.8772 79.3852 40.7098 73.5063 34.8309C67.6274 28.9521 60.4587 26.0083 52 25.9996H51.35L55.0333 29.6829C55.9 30.5496 56.316 31.5607 56.2813 32.7163C56.2467 33.8718 55.8307 34.8829 55.0333 35.7496C54.1667 36.6163 53.1382 37.0684 51.948 37.1059C50.7578 37.1435 49.7279 36.7275 48.8583 35.8579L37.7 24.6996C36.8333 23.8329 36.4 22.8218 36.4 21.6663C36.4 20.5107 36.8333 19.4996 37.7 18.6329L48.8583 7.47461C49.725 6.60794 50.7549 6.19194 51.948 6.22661C53.1411 6.26128 54.1696 6.71339 55.0333 7.58294C55.8278 8.44961 56.2438 9.46072 56.2813 10.6163C56.3189 11.7718 55.9029 12.7829 55.0333 13.6496L51.35 17.3329H52C57.4167 17.3329 62.491 18.3628 67.223 20.4226C71.955 22.4824 76.0717 25.2629 79.573 28.7643C83.0743 32.2656 85.8549 36.3823 87.9147 41.1143C89.9744 45.8463 91.0029 50.9192 91 56.3329C90.9971 61.7467 89.9687 66.8211 87.9147 71.5559C85.8607 76.2908 83.0801 80.4075 79.573 83.9059C76.0659 87.4044 71.9492 90.1849 67.223 92.2476C62.4968 94.3103 57.4224 95.3387 52 95.3329Z" fill="#8AA353"/>
</svg>
