<svg width="65" height="65" viewBox="0 0 65 65" fill="none" xmlns="http://www.w3.org/2000/svg">
<path d="M32.4998 6.771C35.6851 6.77002 38.7868 7.79012 41.3497 9.68156C43.9126 11.573 45.8017 14.2362 46.7397 17.2802C47.6777 20.3242 47.6153 23.5888 46.5615 26.5947C45.5078 29.6006 43.5182 32.1896 40.8848 33.9816C45.4556 35.6581 49.42 38.6641 52.2677 42.6129C55.1155 46.5616 56.7163 51.2723 56.864 56.1385C56.8778 56.4086 56.8376 56.6788 56.7456 56.9331C56.6536 57.1874 56.5117 57.4208 56.3283 57.6196C56.1449 57.8184 55.9236 57.9785 55.6775 58.0907C55.4314 58.2028 55.1654 58.2646 54.895 58.2726C54.6247 58.2805 54.3555 58.2344 54.1032 58.1369C53.8509 58.0394 53.6206 57.8925 53.4259 57.7048C53.2311 57.5171 53.0758 57.2924 52.9691 57.0439C52.8623 56.7954 52.8063 56.5281 52.8042 56.2577C52.6429 50.9804 50.4332 45.9732 46.6432 42.2973C42.8533 38.6214 37.781 36.5656 32.5012 36.5656C27.2214 36.5656 22.1491 38.6214 18.3592 42.2973C14.5692 45.9732 12.3595 50.9804 12.1982 56.2577C12.182 56.7964 11.9525 57.3066 11.5602 57.6761C11.1678 58.0456 10.6447 58.2441 10.106 58.228C9.56727 58.2118 9.05704 57.9823 8.68753 57.5899C8.31803 57.1976 8.11952 56.6745 8.13568 56.1358C8.28396 51.27 9.88498 46.5599 12.7327 42.6117C15.5804 38.6635 19.5445 35.6579 24.1148 33.9816C21.4815 32.1896 19.4919 29.6006 18.4382 26.5947C17.3844 23.5888 17.322 20.3242 18.26 17.2802C19.198 14.2362 21.0871 11.573 23.65 9.68156C26.2129 7.79012 29.3146 6.77002 32.4998 6.771ZM21.6665 21.6668C21.6665 24.54 22.8079 27.2955 24.8395 29.3272C26.8712 31.3588 29.6267 32.5002 32.4998 32.5002C35.373 32.5002 38.1285 31.3588 40.1602 29.3272C42.1918 27.2955 43.3332 24.54 43.3332 21.6668C43.3332 18.7937 42.1918 16.0381 40.1602 14.0065C38.1285 11.9749 35.373 10.8335 32.4998 10.8335C29.6267 10.8335 26.8712 11.9749 24.8395 14.0065C22.8079 16.0381 21.6665 18.7937 21.6665 21.6668Z" fill="#D9D9D9"/>
</svg>