<svg width="35" height="29" viewBox="0 0 35 29" fill="none" xmlns="http://www.w3.org/2000/svg">
<path d="M21.7429 8.0327C21.608 7.92173 21.4477 7.83368 21.2713 7.77361C21.0949 7.71354 20.9058 7.68262 20.7148 7.68262C20.5238 7.68262 20.3346 7.71354 20.1582 7.77361C19.9818 7.83368 19.8216 7.92173 19.6866 8.0327L12.9929 13.5274C12.8577 13.6382 12.7504 13.7697 12.6773 13.9146C12.6041 14.0594 12.5664 14.2146 12.5664 14.3714C12.5664 14.5282 12.6041 14.6834 12.6773 14.8282C12.7504 14.9731 12.8577 15.1046 12.9929 15.2154L19.6866 20.7101C19.8217 20.8209 19.9819 20.9088 20.1583 20.9688C20.3348 21.0288 20.5238 21.0597 20.7148 21.0597C20.9057 21.0597 21.0948 21.0288 21.2712 20.9688C21.4476 20.9088 21.6079 20.8209 21.7429 20.7101C21.8779 20.5993 21.985 20.4677 22.0581 20.3229C22.1311 20.1781 22.1688 20.0229 22.1688 19.8661C22.1688 19.7094 22.1311 19.5542 22.0581 19.4094C21.985 19.2646 21.8779 19.133 21.7429 19.0222L16.0846 14.3654L21.7429 9.72063C22.2971 9.25376 22.2971 8.48761 21.7429 8.0327Z" fill="#8AA353"/>
</svg>
