<svg 
    width="1.9rem" 
    height="1.9rem" 
    viewBox="0 0 1.9rem 1.9rem" 
    fill="none" 
    xmlns="http://www.w3.org/2000/svg">
<path fill-rule="evenodd" clip-rule="evenodd" d="M19.7196 4.8511C20.1419 4.42882 20.6432 4.09385 21.1949 3.86531C21.7467 3.63677 22.338 3.51915 22.9352 3.51915C23.5324 3.51915 24.1238 3.63677 24.6755 3.86531C25.2272 4.09385 25.7285 4.42882 26.1508 4.8511C26.5731 5.27338 26.9081 5.77471 27.1366 6.32644C27.3652 6.87818 27.4828 7.46953 27.4828 8.06673C27.4828 8.66392 27.3652 9.25527 27.1366 9.80701C26.9081 10.3587 26.5731 10.8601 26.1508 11.2824L24.729 12.6999C24.4302 13.0094 24.2651 13.4239 24.269 13.8541C24.273 14.2843 24.4457 14.6957 24.75 14.9997C25.0543 15.3038 25.4659 15.4761 25.8961 15.4796C26.3263 15.4832 26.7406 15.3176 27.0499 15.0186L28.4696 13.6011C29.8795 12.1216 30.6549 10.1494 30.6303 8.1058C30.6056 6.06223 29.7829 4.1093 28.3378 2.66417C26.8926 1.21905 24.9397 0.396294 22.8961 0.371663C20.8526 0.347032 18.8804 1.12248 17.4008 2.53235L11.6018 8.32485C10.1351 9.79324 9.3112 11.7838 9.3112 13.8592C9.3112 15.9347 10.1351 17.9252 11.6018 19.3936C11.9111 19.6926 12.3254 19.8582 12.7556 19.8546C13.1857 19.8511 13.5973 19.6788 13.9016 19.3747C14.206 19.0707 14.3787 18.6593 14.3827 18.2291C14.3866 17.7989 14.2214 17.3844 13.9227 17.0749C13.0705 16.2217 12.5918 15.0651 12.5918 13.8592C12.5918 12.6533 13.0705 11.4968 13.9227 10.6436L19.7196 4.8511ZM19.3915 11.6017C19.0811 11.3037 18.6661 11.1396 18.2358 11.1447C17.8056 11.1498 17.3945 11.3237 17.0913 11.6289C16.7881 11.9342 16.6169 12.3464 16.6146 12.7766C16.6124 13.2069 16.7792 13.6208 17.0793 13.9292C18.8643 15.7011 18.8686 18.5886 17.088 20.3649L11.2824 26.1552C10.8595 26.5774 10.3576 26.9123 9.80538 27.1406C9.25311 27.3689 8.66128 27.4862 8.06368 27.4858C7.46607 27.4854 6.8744 27.3673 6.32245 27.1383C5.77049 26.9092 5.26905 26.5736 4.84677 26.1508C3.99394 25.2968 3.51528 24.139 3.5161 22.9321C3.51692 21.7252 3.99715 20.568 4.85115 19.7152L6.26646 18.2999C6.55626 17.9888 6.71403 17.5775 6.70653 17.1525C6.69903 16.7274 6.52685 16.3219 6.22626 16.0213C5.92567 15.7207 5.52014 15.5485 5.0951 15.541C4.67007 15.5335 4.25872 15.6913 3.94771 15.9811L2.53021 17.3964C1.06066 18.8642 0.234386 20.8557 0.233156 22.9327C0.231925 25.0097 1.05584 27.0022 2.52365 28.4717C3.99145 29.9413 5.98292 30.7675 8.05994 30.7688C10.137 30.77 12.1294 29.9461 13.599 28.4783L19.4046 22.688C20.1338 21.9603 20.712 21.0957 21.106 20.1439C21.5001 19.1921 21.7022 18.1718 21.7008 17.1417C21.6994 16.1115 21.4944 15.0918 21.0978 14.1411C20.7011 13.1904 20.1205 12.3274 19.3893 11.6017H19.3915Z" fill="#8AA353"/>
</svg>
