<svg 
    width="4.375rem" height="4.375rem" 
    viewBox="0 0 4.375rem 4.375rem" 
    fill="none" 
    xmlns="http://www.w3.org/2000/svg">
<path d="M31.9373 30.6249L29.8957 28.5833C29.3123 27.9999 28.6318 27.7083 27.854 27.7083C27.0762 27.7083 26.3957 27.9999 25.8123 28.5833C25.229 29.1666 24.9373 29.8598 24.9373 30.6628C24.9373 31.4659 25.229 32.1581 25.8123 32.7395L29.8957 36.8958C30.479 37.4791 31.1596 37.7708 31.9373 37.7708C32.7151 37.7708 33.3957 37.4791 33.979 36.8958L44.3332 26.5416C44.9165 25.9583 45.2082 25.266 45.2082 24.4649C45.2082 23.6638 44.9165 22.9706 44.3332 22.3853C43.7498 21.8001 43.0576 21.5084 42.2565 21.5103C41.4554 21.5123 40.7622 21.8039 40.1769 22.3853L31.9373 30.6249ZM58.3332 29.7499C58.3332 31.9374 57.9083 34.2348 57.0586 36.642C56.2089 39.0492 54.9693 41.5517 53.3398 44.1495C51.7104 46.7473 49.6804 49.4335 47.2498 52.2083C44.8193 54.983 42.0241 57.8267 38.8644 60.7395C38.3297 61.2256 37.7221 61.5902 37.0415 61.8333C36.3609 62.0763 35.6804 62.1978 34.9998 62.1978C34.3193 62.1978 33.6387 62.0763 32.9582 61.8333C32.2776 61.5902 31.67 61.2256 31.1353 60.7395C27.9755 57.8228 25.1804 54.9791 22.7498 52.2083C20.3193 49.4374 18.2903 46.7521 16.6628 44.1524C15.0353 41.5527 13.7957 39.0492 12.944 36.642C12.0923 34.2348 11.6665 31.9374 11.6665 29.7499C11.6665 22.4583 14.0125 16.6492 18.7044 12.3228C23.3964 7.99645 28.8282 5.83325 34.9998 5.83325C41.1715 5.83325 46.6043 7.99645 51.2982 12.3228C55.9921 16.6492 58.3371 22.4583 58.3332 29.7499Z" fill="#8AA353"/>
</svg>
