<svg width="20" height="20" viewBox="0 0 20 20" fill="none" xmlns="http://www.w3.org/2000/svg">
<g clip-path="url(#clip0_295_705)">
<path d="M10.0001 2.5C10.2211 2.5 10.4331 2.5878 10.5894 2.74408C10.7457 2.90036 10.8335 3.11232 10.8335 3.33333V8.55667L15.3568 5.945C15.5481 5.83624 15.7746 5.80755 15.987 5.86521C16.1994 5.92287 16.3803 6.06218 16.4904 6.25275C16.6004 6.44333 16.6306 6.66969 16.5743 6.88243C16.5181 7.09518 16.38 7.27704 16.1901 7.38833L11.6668 10L16.1901 12.6117C16.2857 12.666 16.3695 12.7387 16.4368 12.8255C16.5042 12.9124 16.5537 13.0117 16.5825 13.1178C16.6113 13.2238 16.6188 13.3345 16.6046 13.4435C16.5905 13.5525 16.5549 13.6576 16.4999 13.7528C16.445 13.8479 16.3717 13.9313 16.2844 13.9981C16.1971 14.0648 16.0975 14.1137 15.9912 14.1417C15.885 14.1698 15.7742 14.1766 15.6654 14.1617C15.5565 14.1469 15.4516 14.1106 15.3568 14.055L10.8335 11.4433V16.6667C10.8335 16.8877 10.7457 17.0996 10.5894 17.2559C10.4331 17.4122 10.2211 17.5 10.0001 17.5C9.77911 17.5 9.56715 17.4122 9.41087 17.2559C9.25459 17.0996 9.16679 16.8877 9.16679 16.6667V11.4433L4.64346 14.055C4.54865 14.1106 4.44378 14.1469 4.3349 14.1617C4.22601 14.1766 4.11525 14.1698 4.009 14.1417C3.90275 14.1137 3.80311 14.0648 3.71581 13.9981C3.62851 13.9313 3.55527 13.8479 3.50032 13.7528C3.44537 13.6576 3.40979 13.5525 3.39562 13.4435C3.38146 13.3345 3.38899 13.2238 3.41778 13.1178C3.44658 13.0117 3.49607 12.9124 3.5634 12.8255C3.63074 12.7387 3.71459 12.666 3.81013 12.6117L8.33346 10L3.81013 7.38833C3.62029 7.27704 3.48217 7.09518 3.42593 6.88243C3.36968 6.66969 3.39987 6.44333 3.5099 6.25275C3.61993 6.06218 3.80087 5.92287 4.01324 5.86521C4.22561 5.80755 4.45216 5.83624 4.64346 5.945L9.16679 8.55667V3.33333C9.16679 3.11232 9.25459 2.90036 9.41087 2.74408C9.56715 2.5878 9.77911 2.5 10.0001 2.5Z" fill="#8AA353"/>
</g>
<defs>
<clipPath id="clip0_295_705">
<rect width="20" height="20" fill="white"/>
</clipPath>
</defs>
</svg>
