<svg width="104" height="104" viewBox="0 0 104 104" fill="none" xmlns="http://www.w3.org/2000/svg">
<path d="M78 47.667V26.0003C78 23.7018 77.0869 21.4974 75.4616 19.8721C73.8363 18.2468 71.6319 17.3337 69.3333 17.3337C67.0348 17.3337 64.8304 18.2468 63.2051 19.8721C61.5798 21.4974 60.6667 23.7018 60.6667 26.0003M60.6667 43.3337V17.3337C60.6667 15.0351 59.7536 12.8307 58.1283 11.2054C56.5029 9.58008 54.2985 8.66699 52 8.66699C49.7015 8.66699 47.4971 9.58008 45.8717 11.2054C44.2464 12.8307 43.3333 15.0351 43.3333 17.3337V26.0003M43.3333 26.0003V45.5003M43.3333 26.0003C43.3333 23.7018 42.4202 21.4974 40.7949 19.8721C39.1696 18.2468 36.9652 17.3337 34.6667 17.3337C32.3681 17.3337 30.1637 18.2468 28.5384 19.8721C26.9131 21.4974 26 23.7018 26 26.0003V60.667" stroke="#8AA353" stroke-width="8.66667" stroke-linecap="round" stroke-linejoin="round"/>
<path d="M77.9998 34.6667C77.9998 32.3681 78.9129 30.1637 80.5382 28.5384C82.1635 26.9131 84.3679 26 86.6665 26C88.965 26 91.1694 26.9131 92.7947 28.5384C94.42 30.1637 95.3331 32.3681 95.3331 34.6667V60.6667C95.3331 69.8608 91.6808 78.6784 85.1795 85.1797C78.6782 91.681 69.8606 95.3333 60.6665 95.3333H51.9998C39.8665 95.3333 32.4998 91.6067 26.0431 85.1933L10.4431 69.5933C8.95218 67.9421 8.15334 65.7807 8.212 63.5567C8.27066 61.3328 9.18233 59.2165 10.7583 57.6462C12.3342 56.0758 14.4536 55.1716 16.6778 55.1209C18.902 55.0701 21.0605 55.8766 22.7065 57.3733L30.3331 65" stroke="#8AA353" stroke-width="8.66667" stroke-linecap="round" stroke-linejoin="round"/>
</svg>
