<svg width="45" height="45" viewBox="0 0 45 45" fill="none" xmlns="http://www.w3.org/2000/svg">
<path fill-rule="evenodd" clip-rule="evenodd" d="M9.65877 9.65956C10.0807 9.23775 10.6529 9.00079 11.2495 9.00079C11.8461 9.00079 12.4183 9.23775 12.8403 9.65956L22.4995 19.3188L32.1588 9.65956C32.3663 9.44466 32.6146 9.27325 32.8891 9.15533C33.1636 9.03741 33.4589 8.97534 33.7576 8.97274C34.0564 8.97015 34.3526 9.02707 34.6292 9.14021C34.9057 9.25334 35.1569 9.42041 35.3682 9.63167C35.5794 9.84292 35.7465 10.0941 35.8596 10.3707C35.9727 10.6472 36.0297 10.9435 36.0271 11.2422C36.0245 11.541 35.9624 11.8362 35.8445 12.1107C35.7266 12.3852 35.5552 12.6335 35.3403 12.8411L25.681 22.5003L35.3403 32.1596C35.7501 32.5839 35.9769 33.1523 35.9718 33.7422C35.9667 34.3322 35.73 34.8965 35.3129 35.3136C34.8957 35.7308 34.3314 35.9674 33.7414 35.9726C33.1515 35.9777 32.5831 35.7509 32.1588 35.3411L22.4995 25.6818L12.8403 35.3411C12.4159 35.7509 11.8476 35.9777 11.2576 35.9726C10.6677 35.9674 10.1033 35.7308 9.68618 35.3136C9.26901 34.8965 9.03238 34.3322 9.02725 33.7422C9.02213 33.1523 9.24891 32.5839 9.65877 32.1596L19.318 22.5003L9.65877 12.8411C9.23696 12.4191 9 11.8469 9 11.2503C9 10.6537 9.23696 10.0815 9.65877 9.65956Z" fill="#8AA353"/>
</svg>
