<svg width="156" height="156" viewBox="0 0 156 156" fill="none" xmlns="http://www.w3.org/2000/svg">
<g clip-path="url(#clip0_295_2445)">
<path d="M78 13C42.12 13 13 42.12 13 78C13 113.88 42.12 143 78 143C113.88 143 143 113.88 143 78C143 42.12 113.88 13 78 13ZM78 32.5C88.79 32.5 97.5 41.21 97.5 52C97.5 62.79 88.79 71.5 78 71.5C67.21 71.5 58.5 62.79 58.5 52C58.5 41.21 67.21 32.5 78 32.5ZM78 124.8C61.75 124.8 47.385 116.48 39 103.87C39.195 90.935 65 83.85 78 83.85C90.935 83.85 116.805 90.935 117 103.87C108.615 116.48 94.25 124.8 78 124.8Z" fill="#D9D9D9"/>
</g>
<defs>
<clipPath id="clip0_295_2445">
<rect width="156" height="156" fill="white"/>
</clipPath>
</defs>
</svg>
