<svg width="30" height="30" viewBox="0 0 30 30" fill="none" xmlns="http://www.w3.org/2000/svg">
<path d="M15 2.8125C12.5895 2.8125 10.2332 3.52728 8.22899 4.86646C6.22477 6.20564 4.66267 8.10907 3.74022 10.336C2.81778 12.563 2.57643 15.0135 3.04668 17.3777C3.51694 19.7418 4.67769 21.9134 6.38214 23.6179C8.08659 25.3223 10.2582 26.4831 12.6223 26.9533C14.9865 27.4236 17.437 27.1822 19.664 26.2598C21.8909 25.3373 23.7944 23.7752 25.1335 21.771C26.4727 19.7668 27.1875 17.4105 27.1875 15C27.1841 11.7687 25.899 8.67076 23.6141 6.3859C21.3292 4.10104 18.2313 2.81591 15 2.8125ZM15 25.3125C12.9604 25.3125 10.9666 24.7077 9.27069 23.5745C7.5748 22.4414 6.25303 20.8308 5.4725 18.9464C4.69197 17.0621 4.48775 14.9886 4.88566 12.9881C5.28357 10.9877 6.26574 9.15019 7.70797 7.70796C9.1502 6.26573 10.9877 5.28356 12.9881 4.88565C14.9886 4.48774 17.0621 4.69196 18.9464 5.47249C20.8308 6.25302 22.4414 7.5748 23.5745 9.27068C24.7077 10.9666 25.3125 12.9604 25.3125 15C25.3094 17.7341 24.2219 20.3553 22.2886 22.2886C20.3553 24.2219 17.7341 25.3094 15 25.3125ZM21.5625 15C21.5625 16.2979 21.1776 17.5667 20.4565 18.6459C19.7354 19.7251 18.7105 20.5663 17.5114 21.063C16.3122 21.5597 14.9927 21.6896 13.7197 21.4364C12.4467 21.1832 11.2774 20.5582 10.3596 19.6404C9.44183 18.7226 8.81682 17.5533 8.5636 16.2803C8.31039 15.0073 8.44035 13.6878 8.93705 12.4886C9.43375 11.2895 10.2749 10.2646 11.3541 9.54348C12.4333 8.82238 13.7021 8.4375 15 8.4375C16.7399 8.43936 18.408 9.13136 19.6383 10.3617C20.8686 11.592 21.5606 13.2601 21.5625 15Z" fill="#A9A9A9"/>
</svg>
