<svg width="70" height="70" viewBox="0 0 70 70" fill="none" xmlns="http://www.w3.org/2000/svg">
<path d="M37.5683 20.4661L51.4925 24.1732M34.5875 31.5378L41.5466 33.3928M34.9345 52.4007L37.717 53.1444C45.592 55.2444 49.5295 56.2915 52.6329 54.5094C55.7333 52.7303 56.7891 48.8132 58.8979 40.9849L61.8816 29.9103C63.9933 22.079 65.0462 18.1649 63.2554 15.079C61.4645 11.9932 57.53 10.9461 49.652 8.84902L46.8695 8.10527C38.9945 6.00527 35.057 4.95819 31.9566 6.74027C28.8533 8.51944 27.7975 12.4365 25.6858 20.2649L22.705 31.3394C20.5933 39.1707 19.5375 43.0849 21.3312 46.1707C23.122 49.2536 27.0595 50.3036 34.9345 52.4007Z" stroke="#8AA353" stroke-width="4.375" stroke-linecap="round" stroke-linejoin="round"/>
<path d="M35.0007 61.0923L32.2241 61.8506C24.3666 63.9886 20.4407 65.059 17.3432 63.2419C14.2516 61.4277 13.1957 57.4377 11.0928 49.4519L8.1149 38.1586C6.00906 30.1756 4.95615 26.1827 6.74406 23.0386C8.28989 20.3173 11.6674 20.4165 16.0424 20.4165" stroke="#8AA353" stroke-width="4.375" stroke-linecap="round" stroke-linejoin="round"/>
</svg>
