<svg width="35" height="29" viewBox="0 0 35 29" fill="none" xmlns="http://www.w3.org/2000/svg">
<path d="M13.5769 8.03282C13.4417 8.14357 13.3344 8.27512 13.2612 8.41993C13.1881 8.56475 13.1504 8.72 13.1504 8.87678C13.1504 9.03356 13.1881 9.18881 13.2612 9.33363C13.3344 9.47844 13.4417 9.60999 13.5769 9.72074L19.2352 14.3655L13.5769 19.0103C13.3042 19.2341 13.151 19.5377 13.151 19.8543C13.151 20.1708 13.3042 20.4744 13.5769 20.6982C13.8495 20.9221 14.2194 21.0478 14.605 21.0478C14.9906 21.0478 15.3604 20.9221 15.6331 20.6982L22.3269 15.2035C22.4621 15.0928 22.5693 14.9612 22.6425 14.8164C22.7157 14.6716 22.7534 14.5163 22.7534 14.3595C22.7534 14.2028 22.7157 14.0475 22.6425 13.9027C22.5693 13.7579 22.4621 13.6263 22.3269 13.5156L15.6331 8.02085C15.079 7.56595 14.1456 7.56595 13.5769 8.03282Z" fill="#8AA353"/>
</svg>
