<svg width="64" height="70" viewBox="0 0 64 70" fill="none" xmlns="http://www.w3.org/2000/svg">
<path d="M8 52.4418V37.0622C8 26.466 8 21.1664 10.928 17.8764C13.856 14.5864 18.5707 14.5835 28 14.5835C37.4293 14.5835 42.1413 14.5835 45.072 17.8764C48 21.1664 48 26.466 48 37.0652V52.4447C48 59.1706 48 62.5335 46.0693 63.7352C42.3253 66.0685 35.3093 58.2897 31.976 55.9477C30.0427 54.5914 29.0747 53.9118 28 53.9118C26.9253 53.9118 25.9573 54.5914 24.0267 55.9477C20.6933 58.2897 13.6747 66.0685 9.93333 63.7352C8 62.5335 8 59.1706 8 52.4447" stroke="#8AA353" stroke-width="4.375" stroke-linecap="round" stroke-linejoin="round"/>
<path d="M24 5.8335H29.3333C41.904 5.8335 48.1893 5.8335 52.0933 10.1035C56 14.3793 56 21.251 56 35.0002V52.5002" stroke="#8AA353" stroke-width="4.375" stroke-linecap="round" stroke-linejoin="round"/>
</svg>
