<svg width="45" height="45" viewBox="0 0 45 45" fill="none" xmlns="http://www.w3.org/2000/svg">
<path d="M23.4291 34.8505L31.1016 38.8818C31.4257 39.0522 31.7911 39.1284 32.1563 39.1015C32.5215 39.0747 32.8718 38.946 33.1675 38.73C33.4632 38.514 33.6924 38.2193 33.829 37.8796C33.9656 37.5399 34.0042 37.1686 33.9403 36.808L32.4722 28.273C32.4178 27.9584 32.4411 27.6352 32.5401 27.3316C32.6391 27.028 32.8108 26.7532 33.0403 26.5311L39.2466 20.4824C39.5111 20.2285 39.6989 19.9054 39.7885 19.5499C39.8782 19.1944 39.8662 18.8209 39.7537 18.4719C39.6413 18.123 39.4331 17.8126 39.1528 17.5763C38.8725 17.34 38.5314 17.1873 38.1684 17.1355L29.5959 15.9036C29.2818 15.8567 28.9839 15.734 28.7278 15.5461C28.4717 15.3583 28.2651 15.111 28.1259 14.8255L24.2109 6.9974C24.0508 6.66604 23.8005 6.38653 23.4888 6.19094C23.177 5.99535 22.8165 5.8916 22.4484 5.8916C22.0804 5.8916 21.7199 5.99535 21.4081 6.19094C21.0964 6.38653 20.8461 6.66604 20.6859 6.9974L16.7766 14.8255C16.6376 15.1108 16.4313 15.3579 16.1755 15.5457C15.9198 15.7336 15.6222 15.8564 15.3084 15.9036L6.85219 17.1355C6.48825 17.1853 6.14568 17.3365 5.86362 17.5719C5.58157 17.8072 5.37142 18.1171 5.2572 18.4663C5.14298 18.8154 5.12929 19.1896 5.21771 19.5461C5.30613 19.9026 5.49308 20.2271 5.75719 20.4824L11.9616 26.5311C12.1915 26.7533 12.3634 27.0284 12.4625 27.3324C12.5615 27.6363 12.5846 27.9599 12.5297 28.2749L11.0616 36.8061C10.9976 37.1666 11.0359 37.5378 11.1723 37.8776C11.3087 38.2173 11.5376 38.512 11.833 38.7282C12.1285 38.9444 12.4787 39.0734 12.8438 39.1005C13.2089 39.1277 13.5743 39.0519 13.8984 38.8818L21.5728 34.8505C21.8582 34.6964 22.1775 34.6157 22.5019 34.6157C22.8262 34.6157 23.1455 34.6964 23.4309 34.8505" stroke="#8AA353" stroke-width="1.8125" stroke-linecap="round" stroke-linejoin="round"/>
</svg>
