<svg width="104" height="104" viewBox="0 0 104 104" fill="none" xmlns="http://www.w3.org/2000/svg">
<path opacity="0.5" d="M86.914 95.3334H17.0867C14.7876 95.3332 12.529 94.7279 10.5379 93.5783C8.54676 92.4286 6.8933 90.7752 5.74362 88.7841C4.59395 86.7931 3.98856 84.5345 3.98828 82.2353C3.98801 79.9362 4.59286 77.6774 5.74205 75.6861L40.6557 15.2144C41.8055 13.223 43.4591 11.5693 45.4505 10.4196C47.4419 9.26984 49.7009 8.66455 52.0004 8.66455C54.2999 8.66455 56.5588 9.26984 58.5502 10.4196C60.5416 11.5693 62.1953 13.223 63.3451 15.2144L98.2587 75.6861C99.4079 77.6774 100.013 79.9362 100.012 82.2353C100.012 84.5345 99.4068 86.7931 98.2571 88.7841C97.1075 90.7752 95.454 92.4286 93.4629 93.5783C91.4718 94.7279 89.2132 95.3332 86.914 95.3334Z" fill="#8AA353"/>
<path d="M51.9993 78.0002C54.3926 78.0002 56.3327 76.0601 56.3327 73.6668C56.3327 71.2736 54.3926 69.3335 51.9993 69.3335C49.6061 69.3335 47.666 71.2736 47.666 73.6668C47.666 76.0601 49.6061 78.0002 51.9993 78.0002Z" fill="#8AA353"/>
<path d="M51.9993 60.6665C50.8501 60.6665 49.7479 60.21 48.9352 59.3973C48.1226 58.5846 47.666 57.4824 47.666 56.3332V38.9998C47.666 37.8506 48.1226 36.7484 48.9352 35.9357C49.7479 35.1231 50.8501 34.6665 51.9993 34.6665C53.1486 34.6665 54.2508 35.1231 55.0635 35.9357C55.8761 36.7484 56.3327 37.8506 56.3327 38.9998V56.3332C56.3327 57.4824 55.8761 58.5846 55.0635 59.3973C54.2508 60.21 53.1486 60.6665 51.9993 60.6665Z" fill="#8AA353"/>
</svg>
