<svg width="29" height="29" viewBox="0 0 29 29" fill="none" xmlns="http://www.w3.org/2000/svg">
<path d="M23.2979 22.0146C23.3821 22.0988 23.4489 22.1988 23.4945 22.3088C23.5401 22.4188 23.5635 22.5367 23.5635 22.6558C23.5635 22.7749 23.5401 22.8928 23.4945 23.0028C23.4489 23.1128 23.3821 23.2128 23.2979 23.297C23.2137 23.3812 23.1138 23.4479 23.0038 23.4935C22.8937 23.5391 22.7758 23.5625 22.6568 23.5625C22.5377 23.5625 22.4198 23.5391 22.3098 23.4935C22.1997 23.4479 22.0998 23.3812 22.0156 23.297L14.5005 15.7807L6.98543 23.297C6.81538 23.467 6.58474 23.5625 6.34425 23.5625C6.10377 23.5625 5.87313 23.467 5.70308 23.297C5.53303 23.1269 5.4375 22.8963 5.4375 22.6558C5.4375 22.4153 5.53303 22.1847 5.70308 22.0146L13.2193 14.4995L5.70308 6.98445C5.53303 6.8144 5.4375 6.58376 5.4375 6.34328C5.4375 6.10279 5.53303 5.87215 5.70308 5.70211C5.87313 5.53206 6.10377 5.43652 6.34425 5.43652C6.58474 5.43652 6.81538 5.53206 6.98543 5.70211L14.5005 13.2183L22.0156 5.70211C22.1856 5.53206 22.4163 5.43652 22.6568 5.43652C22.8972 5.43652 23.1279 5.53206 23.2979 5.70211C23.468 5.87215 23.5635 6.10279 23.5635 6.34328C23.5635 6.58376 23.468 6.8144 23.2979 6.98445L15.7817 14.4995L23.2979 22.0146Z" fill="#8AA353"/>
</svg>
