<svg width="45" height="45" viewBox="0 0 45 45" fill="none" xmlns="http://www.w3.org/2000/svg">
<path fill-rule="evenodd" clip-rule="evenodd" d="M34.9201 9.49472C35.3855 9.80505 35.7086 10.2875 35.8184 10.8361C35.9281 11.3846 35.8154 11.9543 35.5051 12.4197L21.4426 33.5135C21.2694 33.7729 21.0408 33.9907 20.7733 34.1512C20.5058 34.3116 20.2061 34.4108 19.8956 34.4414C19.5852 34.4721 19.2718 34.4335 18.9781 34.3285C18.6844 34.2235 18.4176 34.0546 18.197 33.8341L9.75949 25.3966C9.38689 24.9967 9.18405 24.4679 9.19369 23.9214C9.20333 23.3749 9.42471 22.8535 9.81118 22.467C10.1977 22.0806 10.7191 21.8592 11.2655 21.8495C11.812 21.8399 12.3409 22.0427 12.7407 22.4153L19.3586 29.0332L31.9951 10.0769C32.3059 9.61194 32.7886 9.28941 33.3371 9.18024C33.8856 9.07106 34.455 9.18418 34.9201 9.49472Z" fill="#8AA353"/>
</svg>
