<svg 
    width="100%" 
    height="100%" 
    viewBox="0 0 12.625rem 4.188rem" 
    fill="none" 
    xmlns="http://www.w3.org/2000/svg"
>
<path d="M104.35 42.632C104.67 42.44 105.086 41.912 105.598 41.048C106.142 40.152 106.606 39.112 106.99 37.928C107.406 36.744 107.614 35.576 107.614 34.424C107.614 33.048 107.246 31.832 106.51 30.776C105.806 29.72 104.638 28.952 103.006 28.472C102.398 31.992 101.166 34.936 99.3099 37.304C97.4539 39.64 94.7499 41.048 91.1979 41.528C90.6219 41.624 90.0779 41.672 89.5659 41.672C87.9659 41.672 86.5899 41.32 85.4379 40.616C84.2859 39.912 83.4059 38.984 82.7979 37.832C82.1899 36.68 81.8859 35.416 81.8859 34.04C81.8859 32.408 82.3179 30.808 83.1819 29.24C84.0779 27.64 85.4059 26.28 87.1659 25.16C88.9579 24.008 91.1499 23.256 93.7419 22.904C95.0219 22.744 96.3499 22.632 97.7259 22.568L98.0139 17.432H103.774L103.486 23C106.878 23.672 109.326 25.032 110.83 27.08C112.366 29.128 113.134 31.544 113.134 34.328C113.134 35.768 112.958 37.208 112.606 38.648C112.254 40.088 111.774 41.416 111.166 42.632H104.35ZM117.214 55.448H78.2379V50.168H117.214V55.448ZM90.4299 36.344C94.1099 35.832 96.3979 33.032 97.2939 27.944C96.0779 28.008 95.1499 28.088 94.5099 28.184C93.0059 28.376 91.7259 28.792 90.6699 29.432C89.6459 30.04 88.8619 30.76 88.3179 31.592C87.8059 32.424 87.5499 33.224 87.5499 33.992C87.5499 34.792 87.8059 35.416 88.3179 35.864C88.8299 36.312 89.5339 36.472 90.4299 36.344ZM134.607 52.424C134.607 53.352 135.439 54.056 137.103 54.536C138.799 55.016 140.895 55.256 143.391 55.256C143.967 55.256 144.863 55.224 146.079 55.16C148.383 55.032 150.079 54.712 151.167 54.2C152.255 53.72 152.863 53.016 152.991 52.088C150.847 51.608 148.607 51.208 146.271 50.888C143.935 50.568 141.871 50.408 140.079 50.408C136.431 50.408 134.607 51.08 134.607 52.424ZM158.799 16.52V41.576H153.039V16.52H158.799ZM150.159 17V41.576H144.399V32.168H141.039V26.408H144.399V17H150.159ZM143.007 40.136C140.703 40.648 138.767 41.032 137.199 41.288C135.631 41.544 134.111 41.672 132.639 41.672C128.799 41.672 126.031 40.536 124.335 38.264C123.279 36.92 122.751 35.384 122.751 33.656C122.751 33.016 122.863 32.28 123.087 31.448H122.127V26.168H139.407V31.448H129.855C129.407 31.64 129.071 31.944 128.847 32.36C128.655 32.776 128.559 33.208 128.559 33.656C128.559 34.296 128.687 34.776 128.943 35.096C129.615 35.992 130.863 36.44 132.687 36.44C133.743 36.44 134.943 36.328 136.287 36.104C137.631 35.88 139.391 35.528 141.567 35.048L143.007 34.76V40.136ZM140.991 23.144H122.127V17.864H140.991V23.144ZM128.847 42.488H134.607V45.848C136.271 45.4 138.255 45.176 140.559 45.176C144.271 45.176 148.431 45.688 153.039 46.712V42.968H158.799V51.656C158.799 54.408 157.695 56.488 155.487 57.896C153.311 59.336 150.303 60.184 146.463 60.44C145.119 60.504 144.127 60.536 143.487 60.536C139.327 60.536 135.839 59.896 133.023 58.616C130.239 57.336 128.847 55.272 128.847 52.424V42.488ZM173.026 52.424C173.026 53.352 173.858 54.056 175.522 54.536C177.218 55.016 179.314 55.256 181.81 55.256C182.386 55.256 183.282 55.224 184.498 55.16C186.802 55.032 188.498 54.712 189.586 54.2C190.674 53.72 191.282 53.016 191.41 52.088C189.266 51.608 187.026 51.208 184.69 50.888C182.354 50.568 180.29 50.408 178.498 50.408C174.85 50.408 173.026 51.08 173.026 52.424ZM197.218 16.52V41.576H191.458V31.832H185.746C185.362 34.296 184.178 36.28 182.194 37.784C180.21 39.288 177.826 40.04 175.042 40.04H174.562C172.514 40.04 170.658 39.624 168.994 38.792C167.362 37.96 166.066 36.792 165.106 35.288C164.178 33.784 163.714 32.072 163.714 30.152V27.656C163.714 25.704 164.178 23.992 165.106 22.52C166.066 21.016 167.362 19.848 168.994 19.016C170.658 18.184 172.514 17.768 174.562 17.768H175.042C177.858 17.768 180.258 18.536 182.242 20.072C184.226 21.576 185.41 23.576 185.794 26.072H191.458V16.52H197.218ZM169.474 30.152C169.474 31.56 169.922 32.68 170.818 33.512C171.746 34.344 172.994 34.76 174.562 34.76H175.042C176.61 34.76 177.842 34.344 178.738 33.512C179.666 32.68 180.13 31.56 180.13 30.152V27.656C180.13 26.216 179.666 25.096 178.738 24.296C177.842 23.464 176.61 23.048 175.042 23.048H174.562C172.994 23.048 171.746 23.464 170.818 24.296C169.922 25.096 169.474 26.216 169.474 27.656V30.152ZM167.266 42.488H173.026V45.848C174.69 45.4 176.674 45.176 178.978 45.176C182.69 45.176 186.85 45.688 191.458 46.712V42.968H197.218V51.656C197.218 54.408 196.114 56.488 193.906 57.896C191.73 59.336 188.722 60.184 184.882 60.44C183.538 60.504 182.546 60.536 181.906 60.536C177.746 60.536 174.258 59.896 171.442 58.616C168.658 57.336 167.266 55.272 167.266 52.424V42.488Z" fill="#8AA353"/>
<path d="M18.2857 55.1429H4.57143C2.048 55.1429 0 53.1544 0 50.7143V37.4286C0 34.9884 2.048 33 4.57143 33H18.2857V24.1429C18.2857 21.7027 20.3337 19.7143 22.8571 19.7143H36.5714V6.42857C36.5714 3.98843 38.6194 2 41.1429 2H54.8571C57.3806 2 59.4286 3.98843 59.4286 6.42857V24.1429H54.8571V6.42857H41.1429V19.7143C41.1429 22.1544 39.0949 24.1429 36.5714 24.1429H22.8571V33C22.8571 35.4401 20.8091 37.4286 18.2857 37.4286H4.57143V50.7143H18.2857V55.1429ZM64 52.9286V33C64 30.5599 61.952 28.5714 59.4286 28.5714H45.7143C43.1909 28.5714 41.1429 30.5599 41.1429 33V41.8571H27.4286C24.9051 41.8571 22.8571 43.8456 22.8571 46.2857V59.5714C22.8571 62.0116 24.9051 64 27.4286 64H52.5714C58.8754 64 64 59.0311 64 52.9286Z" fill="#8AA353"/>
</svg>
