<svg 
    width="100%" 
    height="100%"
    viewBox="0 0 10.5rem 3.5rem" 
    fill="none" 
    xmlns="http://www.w3.org/2000/svg"
>
<path fill="current" fill-rule="evenodd" d="...." />
<path d="M14.8571 47.8571H3.71429C1.664 47.8571 0 46.2536 0 44.2857V33.5714C0 31.6036 1.664 30 3.71429 30H14.8571V22.8571C14.8571 20.8893 16.5211 19.2857 18.5714 19.2857H29.7143V8.57143C29.7143 6.60357 31.3783 5 33.4286 5H44.5714C46.6217 5 48.2857 6.60357 48.2857 8.57143V22.8571H44.5714V8.57143H33.4286V19.2857C33.4286 21.2536 31.7646 22.8571 29.7143 22.8571H18.5714V30C18.5714 31.9679 16.9074 33.5714 14.8571 33.5714H3.71429V44.2857H14.8571V47.8571ZM52 46.0714V30C52 28.0321 50.336 26.4286 48.2857 26.4286H37.1429C35.0926 26.4286 33.4286 28.0321 33.4286 30V37.1429H22.2857C20.2354 37.1429 18.5714 38.7464 18.5714 40.7143V51.4286C18.5714 53.3964 20.2354 55 22.2857 55H42.7143C47.8363 55 52 50.9929 52 46.0714Z" fill="#8AA353"/>
<path d="M85.6375 34.224C85.8775 34.08 86.1895 33.684 86.5735 33.036C86.9815 32.364 87.3295 31.584 87.6175 30.696C87.9295 29.808 88.0855 28.932 88.0855 28.068C88.0855 27.036 87.8095 26.124 87.2575 25.332C86.7295 24.54 85.8535 23.964 84.6295 23.604C84.1735 26.244 83.2495 28.452 81.8575 30.228C80.4655 31.98 78.4375 33.036 75.7735 33.396C75.3415 33.468 74.9335 33.504 74.5495 33.504C73.3495 33.504 72.3175 33.24 71.4535 32.712C70.5895 32.184 69.9295 31.488 69.4735 30.624C69.0175 29.76 68.7895 28.812 68.7895 27.78C68.7895 26.556 69.1135 25.356 69.7615 24.18C70.4335 22.98 71.4295 21.96 72.7495 21.12C74.0935 20.256 75.7375 19.692 77.6815 19.428C78.6415 19.308 79.6375 19.224 80.6695 19.176L80.8855 15.324H85.2055L84.9895 19.5C87.5335 20.004 89.3695 21.024 90.4975 22.56C91.6495 24.096 92.2255 25.908 92.2255 27.996C92.2255 29.076 92.0935 30.156 91.8295 31.236C91.5655 32.316 91.2055 33.312 90.7495 34.224H85.6375ZM95.2855 43.836H66.0535V39.876H95.2855V43.836ZM75.1975 29.508C77.9575 29.124 79.6735 27.024 80.3455 23.208C79.4335 23.256 78.7375 23.316 78.2575 23.388C77.1295 23.532 76.1695 23.844 75.3775 24.324C74.6095 24.78 74.0215 25.32 73.6135 25.944C73.2295 26.568 73.0375 27.168 73.0375 27.744C73.0375 28.344 73.2295 28.812 73.6135 29.148C73.9975 29.484 74.5255 29.604 75.1975 29.508ZM108.33 41.568C108.33 42.264 108.954 42.792 110.202 43.152C111.474 43.512 113.046 43.692 114.918 43.692C115.35 43.692 116.022 43.668 116.934 43.62C118.662 43.524 119.934 43.284 120.75 42.9C121.566 42.54 122.022 42.012 122.118 41.316C120.51 40.956 118.83 40.656 117.078 40.416C115.326 40.176 113.778 40.056 112.434 40.056C109.698 40.056 108.33 40.56 108.33 41.568ZM126.474 14.64V33.432H122.154V14.64H126.474ZM119.994 15V33.432H115.674V26.376H113.154V22.056H115.674V15H119.994ZM114.63 32.352C112.902 32.736 111.45 33.024 110.274 33.216C109.098 33.408 107.958 33.504 106.854 33.504C103.974 33.504 101.898 32.652 100.626 30.948C99.8341 29.94 99.4381 28.788 99.4381 27.492C99.4381 27.012 99.5221 26.46 99.6901 25.836H98.9701V21.876H111.93V25.836H104.766C104.43 25.98 104.178 26.208 104.01 26.52C103.866 26.832 103.794 27.156 103.794 27.492C103.794 27.972 103.89 28.332 104.082 28.572C104.586 29.244 105.522 29.58 106.89 29.58C107.682 29.58 108.582 29.496 109.59 29.328C110.598 29.16 111.918 28.896 113.55 28.536L114.63 28.32V32.352ZM113.118 19.608H98.9701V15.648H113.118V19.608ZM104.01 34.116H108.33V36.636C109.578 36.3 111.066 36.132 112.794 36.132C115.578 36.132 118.698 36.516 122.154 37.284V34.476H126.474V40.992C126.474 43.056 125.646 44.616 123.99 45.672C122.358 46.752 120.102 47.388 117.222 47.58C116.214 47.628 115.47 47.652 114.99 47.652C111.87 47.652 109.254 47.172 107.142 46.212C105.054 45.252 104.01 43.704 104.01 41.568V34.116ZM137.144 41.568C137.144 42.264 137.768 42.792 139.016 43.152C140.288 43.512 141.86 43.692 143.732 43.692C144.164 43.692 144.836 43.668 145.748 43.62C147.476 43.524 148.748 43.284 149.564 42.9C150.38 42.54 150.836 42.012 150.932 41.316C149.324 40.956 147.644 40.656 145.892 40.416C144.14 40.176 142.592 40.056 141.248 40.056C138.512 40.056 137.144 40.56 137.144 41.568ZM155.288 14.64V33.432H150.968V26.124H146.684C146.396 27.972 145.508 29.46 144.02 30.588C142.532 31.716 140.744 32.28 138.656 32.28H138.296C136.76 32.28 135.368 31.968 134.12 31.344C132.896 30.72 131.924 29.844 131.204 28.716C130.508 27.588 130.16 26.304 130.16 24.864V22.992C130.16 21.528 130.508 20.244 131.204 19.14C131.924 18.012 132.896 17.136 134.12 16.512C135.368 15.888 136.76 15.576 138.296 15.576H138.656C140.768 15.576 142.568 16.152 144.056 17.304C145.544 18.432 146.432 19.932 146.72 21.804H150.968V14.64H155.288ZM134.48 24.864C134.48 25.92 134.816 26.76 135.488 27.384C136.184 28.008 137.12 28.32 138.296 28.32H138.656C139.832 28.32 140.756 28.008 141.428 27.384C142.124 26.76 142.472 25.92 142.472 24.864V22.992C142.472 21.912 142.124 21.072 141.428 20.472C140.756 19.848 139.832 19.536 138.656 19.536H138.296C137.12 19.536 136.184 19.848 135.488 20.472C134.816 21.072 134.48 21.912 134.48 22.992V24.864ZM132.824 34.116H137.144V36.636C138.392 36.3 139.88 36.132 141.608 36.132C144.392 36.132 147.512 36.516 150.968 37.284V34.476H155.288V40.992C155.288 43.056 154.46 44.616 152.804 45.672C151.172 46.752 148.916 47.388 146.036 47.58C145.028 47.628 144.284 47.652 143.804 47.652C140.684 47.652 138.068 47.172 135.956 46.212C133.868 45.252 132.824 43.704 132.824 41.568V34.116Z" fill="#8AA353"/>
</svg>
